<svg xmlns="http://www.w3.org/2000/svg" xmlns:xlink="http://www.w3.org/1999/xlink" width="500" zoomAndPan="magnify" viewBox="0 0 375 374.999991" height="500" preserveAspectRatio="xMidYMid meet" version="1.0"><defs><clipPath id="id1"><path d="M 58.019531 25.5 L 351 25.5 L 351 287 L 58.019531 287 Z M 58.019531 25.5 " clip-rule="nonzero"/></clipPath></defs><path fill="rgb(0%, 29.019165%, 67.83905%)" d="M 67.011719 29.328125 C 67.914062 26.273438 70.617188 23.824219 73.742188 23.214844 C 74.253906 23.113281 75.078125 23.679688 75.292969 24.226562 C 74.984375 22.183594 75.5625 20.015625 76.878906 18.417969 C 78.269531 16.726562 80.453125 15.710938 82.644531 15.734375 C 83.539062 15.742188 84.46875 15.929688 85.175781 16.480469 C 85.882812 17.03125 86.3125 17.996094 86.039062 18.851562 C 87.496094 15.429688 92.070312 14.355469 95.625 15.453125 C 96.621094 15.765625 97.59375 16.246094 98.300781 16.996094 C 98.652344 16.621094 99.027344 16.257812 99.449219 15.949219 C 102.398438 13.773438 106.472656 14.054688 110.128906 14.230469 C 110.601562 13.011719 111.074219 11.792969 111.546875 10.574219 C 111.972656 9.472656 112.40625 8.359375 113.101562 7.402344 C 114.320312 5.71875 116.238281 4.675781 118.175781 3.917969 C 121.253906 2.714844 125.027344 1.847656 128.210938 2.722656 C 130.53125 1.007812 133.398438 0.0390625 136.285156 0 C 138.777344 -0.03125 141.839844 1.304688 141.773438 3.792969 C 143.339844 2.410156 145.722656 2.042969 147.636719 2.878906 C 149.550781 3.714844 150.894531 5.71875 150.945312 7.804688 C 155.890625 6.949219 161.160156 10.773438 161.867188 15.742188 C 163.769531 16.460938 165.695312 17.195312 167.320312 18.414062 C 168.945312 19.632812 170.253906 21.429688 170.410156 23.453125 C 170.457031 24.035156 170.421875 24.671875 170.773438 25.132812 C 171.007812 25.445312 171.375 25.621094 171.710938 25.816406 C 174.898438 27.652344 175.820312 32.476562 173.546875 35.359375 C 175.558594 36.777344 176.757812 39.277344 176.601562 41.734375 C 176.449219 44.191406 174.945312 46.515625 172.769531 47.671875 C 172.019531 50.429688 169.824219 53.054688 168.265625 55.453125 C 166.242188 58.550781 164.851562 62.0625 164.195312 65.703125 C 163.476562 69.699219 163.640625 73.824219 162.75 77.785156 C 162.085938 80.746094 160.84375 83.550781 159.4375 86.242188 C 157.722656 89.523438 155.707031 92.710938 152.90625 95.128906 C 149.992188 97.644531 146.277344 99.21875 142.441406 99.566406 C 141.191406 99.683594 139.894531 99.664062 138.71875 99.207031 C 137.496094 98.734375 136.503906 97.828125 135.542969 96.941406 C 133.058594 94.65625 129.972656 92.320312 127.488281 90.035156 C 125.351562 90.726562 123.089844 91.210938 120.863281 90.9375 C 118.632812 90.660156 116.035156 89.085938 114.890625 87.152344 C 113.125 89.558594 109.917969 90.824219 106.984375 90.265625 C 104.046875 89.710938 101.53125 87.367188 100.765625 84.480469 C 98.238281 84.519531 95.890625 82.929688 94.449219 80.855469 C 93.003906 78.78125 92.335938 76.273438 91.871094 73.789062 C 89.648438 72.835938 86.996094 70.597656 85.953125 68.417969 C 84.679688 65.753906 85.386719 62.613281 86.113281 59.753906 C 84.636719 59.933594 82.128906 57.988281 81.578125 56.609375 C 81.03125 55.234375 81.175781 53.675781 81.503906 52.234375 C 81.710938 51.320312 81.992188 50.421875 82.339844 49.550781 C 79.722656 49.019531 77.335938 46.875 77.375 44.230469 C 75.585938 45.671875 72.710938 45.082031 71.183594 43.363281 C 69.660156 41.640625 69.300781 39.136719 69.660156 36.863281 C 67.363281 34.65625 66.109375 32.382812 67.011719 29.328125 Z M 82.082031 177.648438 C 83.210938 186.804688 86.207031 195.683594 87.332031 204.820312 C 96.226562 207.105469 103.460938 208.371094 103.460938 208.371094 C 103.460938 208.371094 114.042969 236.566406 117.570312 248.019531 C 121.09375 259.472656 114.480469 271.367188 120.21875 280.539062 C 120.21875 280.539062 104.003906 300.894531 99.234375 324.710938 C 94.46875 348.53125 95.820312 375 95.820312 375 L 164.605469 375 L 168.574219 354.882812 L 173.753906 375 L 232.886719 375 C 232.886719 375 238.875 326.492188 215.175781 277.984375 C 217.730469 267.132812 208.359375 243.089844 209.164062 236.621094 C 210.945312 222.246094 214.453125 215.277344 217.695312 208.796875 C 220.933594 202.324219 219.597656 198.199219 218.933594 191.019531 C 223.046875 187.761719 229.414062 184.921875 234.15625 183.066406 C 230.40625 174.621094 226.183594 166.40625 220.910156 158.828125 C 212.320312 146.46875 200.640625 135.769531 186.410156 130.847656 C 166.050781 123.808594 143.664062 129.320312 123.121094 135.804688 C 116.65625 137.847656 110.222656 139.980469 103.820312 142.21875 C 99.027344 143.894531 94.132812 145.699219 90.296875 149.027344 C 82.488281 155.804688 80.824219 167.382812 82.082031 177.648438 " fill-opacity="1" fill-rule="nonzero"/><path fill="rgb(1.179504%, 59.609985%, 61.959839%)" d="M 175.335938 73.457031 C 175.347656 75.28125 176.023438 74.667969 177.007812 76.203125 C 178.730469 78.894531 179.925781 85.527344 178.46875 88.375 C 177.015625 91.222656 173.714844 96.855469 170.71875 97.972656 C 167.882812 99.027344 163.460938 100.429688 160.4375 100.472656 C 157.988281 100.507812 154.511719 101.085938 152.148438 100.425781 C 148 99.265625 145.15625 101.371094 141.867188 98.585938 C 141.339844 98.136719 139.140625 92.898438 138.800781 92.300781 C 137.832031 90.601562 134.089844 88.875 133.890625 86.933594 C 133.699219 85.070312 133.082031 77.910156 133.222656 76.042969 C 133.375 73.984375 131.800781 64.589844 133.429688 63.316406 C 137.953125 59.769531 151.21875 50.308594 156.753906 48.746094 C 161.035156 47.535156 169.785156 59.070312 173.832031 61.601562 C 175.246094 62.488281 175.777344 63.824219 176.015625 65.429688 C 176.460938 68.375 175.320312 70.726562 175.335938 73.457031 Z M 211.964844 288.117188 C 213.433594 289.421875 214.878906 290.773438 216.542969 291.816406 C 217.609375 292.488281 218.761719 293.03125 219.722656 293.84375 C 220.675781 294.660156 221.757812 295.832031 221.679688 297.085938 C 221.382812 296.675781 220.855469 296.519531 220.375 296.371094 C 215.597656 294.882812 211.507812 291.320312 209.378906 286.796875 C 210.910156 286.996094 210.808594 287.089844 211.964844 288.117188 Z M 179.253906 317.328125 C 179.886719 315.761719 181.347656 313.816406 182.59375 312.675781 C 181.714844 324.894531 175.917969 336.144531 170.242188 347.003906 C 170.242188 337.683594 174.992188 327.933594 179.253906 317.328125 Z M 123.960938 302.949219 C 125.757812 300.515625 127.121094 297.738281 129.277344 295.613281 C 130.65625 294.257812 132.207031 293.046875 134.03125 292.398438 C 134.15625 295.917969 132.464844 299.253906 130.433594 302.136719 C 128.355469 305.09375 125.835938 307.808594 122.726562 309.660156 C 120.421875 311.03125 117.378906 311.859375 115.148438 310.375 C 119.585938 308.695312 121.148438 306.769531 123.960938 302.949219 Z M 162.445312 223.5625 C 169.386719 221.238281 175.003906 215.605469 182.164062 214.078125 C 188.582031 212.710938 195.230469 214.871094 201.140625 217.726562 C 190.226562 217.222656 179.082031 219.511719 168.75 223.070312 C 166.285156 223.917969 164.851562 224.574219 162.445312 223.5625 Z M 182.183594 240.027344 L 188.023438 234.066406 L 188.867188 236.523438 C 188.867188 236.523438 187.609375 237.390625 187.175781 238.269531 C 186.742188 239.15625 186.582031 241.890625 186.582031 241.890625 L 183.117188 242.472656 Z M 190.855469 228.136719 L 193.777344 227.699219 L 194.179688 230.722656 L 191.394531 232.066406 Z M 62.941406 196.152344 C 76.875 203.722656 103.460938 208.371094 103.460938 208.371094 C 103.460938 208.371094 103.597656 208.734375 103.832031 209.367188 C 104.695312 208.234375 109.089844 200.992188 105.75 174.304688 C 105.75 174.304688 112.335938 191.253906 113.914062 204.625 C 115.5 217.996094 128.964844 226.753906 131.84375 234.222656 C 134.722656 241.691406 130.214844 252.191406 128.914062 259.574219 C 127.613281 266.957031 129.984375 277.957031 135.78125 277.984375 C 135.78125 277.984375 130.253906 282.484375 123.386719 282.035156 C 166.691406 301.492188 215.175781 277.984375 215.175781 277.984375 C 217.730469 267.132812 208.359375 243.089844 209.164062 236.621094 C 210.09375 229.09375 211.5 223.597656 213.097656 219.132812 C 214.546875 215.078125 225.765625 216.425781 227.308594 213.339844 C 230.550781 206.863281 220.488281 199.746094 219.824219 192.566406 C 219.828125 192.566406 219.9375 191.933594 219.941406 191.933594 C 219.9375 191.933594 218.933594 191.019531 218.933594 191.019531 C 217.171875 182.464844 203.738281 160.617188 200.574219 154.5625 C 200.574219 154.5625 216.832031 174.953125 223.730469 187.796875 C 223.246094 188.105469 228.488281 200.6875 227.996094 201.003906 C 235.578125 196.398438 240.472656 180.8125 240.472656 180.8125 C 238.238281 175.242188 235.964844 169.257812 233.964844 163.503906 C 227.429688 144.738281 216 131.683594 203.34375 125.15625 C 190.6875 118.628906 168.238281 120.667969 162.019531 119.5 L 114.613281 123.953125 C 114.613281 123.953125 85.738281 135.214844 76.96875 144.097656 C 63.792969 157.441406 60.828125 195.003906 62.941406 196.152344 Z M 359.070312 201.84375 L 365.929688 188.628906 L 366.097656 167.847656 C 366.097656 167.847656 358.183594 138.414062 347.691406 133.949219 C 337.199219 129.476562 335.308594 141.515625 335.308594 141.515625 C 345.179688 138.214844 348.695312 142.808594 348.863281 143.3125 C 349.03125 143.816406 340.210938 151.839844 340.210938 151.839844 C 340.210938 151.839844 332.628906 171.238281 330.121094 180.601562 C 327.609375 189.96875 339.714844 213.355469 339.714844 213.355469 L 342.402344 212.769531 L 359.070312 201.84375 " fill-opacity="1" fill-rule="nonzero"/><g clip-path="url(#id1)"><path fill="rgb(92.158508%, 40.779114%, 13.729858%)" d="M 217.695312 208.796875 C 220.933594 202.324219 219.597656 198.199219 218.933594 191.019531 C 226.195312 185.273438 240.46875 180.8125 240.472656 180.8125 C 245.523438 193.398438 250.382812 203.859375 251.519531 204.707031 C 251.519531 204.707031 256.886719 198.179688 266.449219 192.0625 C 276.011719 185.941406 302.019531 169.621094 306.570312 164.320312 C 309.75 161.417969 322.96875 146.113281 324.765625 143.125 C 326.558594 140.136719 335.53125 133.265625 335.53125 133.265625 L 338.050781 135.1875 C 339.84375 134.886719 334.835938 143.335938 339.621094 140.644531 C 344.40625 137.957031 350.792969 144.941406 350.792969 144.941406 C 347.199219 147.175781 338.460938 154.847656 336.367188 159.332031 C 334.273438 163.8125 331.613281 167.035156 331.613281 167.035156 L 325.363281 171.816406 C 325.363281 171.816406 318.785156 174.800781 317.242188 178.597656 C 317.242188 178.597656 273.5625 251.625 250.292969 251.625 C 241.789062 251.625 218.972656 225.917969 213.097656 219.132812 C 214.546875 215.078125 216.152344 211.882812 217.695312 208.796875 Z M 111.363281 63.652344 C 112.324219 62.203125 112.691406 60.457031 113.148438 58.777344 C 113.605469 57.101562 114.207031 55.375 115.488281 54.195312 C 116.488281 53.277344 117.820312 52.773438 118.824219 51.859375 C 121.910156 49.046875 120.941406 43.5 124.027344 40.691406 C 125.511719 39.34375 127.6875 38.898438 129.070312 37.445312 C 130.585938 35.835938 130.769531 33.4375 131.128906 31.253906 C 131.492188 29.074219 132.378906 26.632812 134.464844 25.898438 C 136.914062 25.035156 140.503906 25.796875 142.492188 27.460938 C 144.425781 29.078125 144.976562 32.03125 147.117188 33.355469 C 149.90625 35.089844 153.941406 33.1875 156.671875 35.007812 C 158.375 36.144531 158.988281 38.371094 160.488281 39.761719 C 162.183594 41.339844 164.683594 41.585938 166.957031 42.050781 C 168.613281 42.382812 170.390625 43.035156 171.511719 44.207031 C 171.90625 45.671875 172.050781 46.589844 172.050781 46.589844 C 172.050781 46.589844 174.410156 51.292969 176.613281 58.503906 C 176.023438 60.515625 175.792969 62.453125 175.789062 64.351562 C 175.480469 63.226562 174.917969 62.28125 173.832031 61.601562 C 169.785156 59.070312 162.976562 60.035156 158.695312 61.246094 C 153.160156 62.804688 148.164062 65.875 143.636719 69.421875 C 142.007812 70.695312 140.308594 72.265625 140.15625 74.324219 C 140.015625 76.191406 141.199219 77.90625 141.394531 79.765625 C 141.59375 81.707031 140.730469 83.839844 141.703125 85.535156 C 142.042969 86.136719 142.578125 86.59375 143.105469 87.039062 C 146.394531 89.828125 149.859375 92.628906 154.011719 93.789062 C 156.371094 94.449219 158.847656 94.542969 161.296875 94.507812 C 164.320312 94.46875 167.390625 94.222656 170.222656 93.164062 C 173.21875 92.046875 175.925781 89.957031 177.382812 87.109375 C 178.835938 84.261719 178.894531 80.640625 177.171875 77.945312 C 176.1875 76.410156 174.625 75.042969 174.613281 73.222656 C 174.601562 71.164062 175.648438 69.460938 175.984375 67.488281 C 176.757812 73.984375 179.566406 80.238281 179.390625 87.578125 C 176.617188 105.253906 153.183594 106.945312 153.183594 106.945312 C 153.183594 106.945312 153.171875 108.484375 153.277344 110.757812 C 153.488281 115.046875 156.539062 118.703125 160.742188 119.578125 C 160.835938 119.597656 160.882812 119.605469 160.882812 119.605469 C 160.882812 119.605469 173.582031 139.726562 157.140625 144.480469 C 142.964844 148.574219 120.757812 123.953125 120.757812 123.953125 C 122.910156 109.8125 118.898438 88.515625 118.898438 88.515625 C 112.316406 87.34375 108.316406 77.734375 107.261719 65.863281 C 108.863281 66.054688 110.457031 65.015625 111.363281 63.652344 Z M 64.539062 196.972656 C 50.46875 244.695312 62.546875 282.273438 69.328125 285.484375 C 76.109375 288.691406 90.382812 285.484375 104.65625 283.339844 C 118.929688 281.203125 141.054688 264.796875 145.722656 264.753906 C 147.804688 264.738281 155.851562 266.019531 158.5625 266.546875 C 160.394531 267.261719 165.714844 266.984375 171.027344 266.253906 C 180.890625 276.890625 181.980469 264.261719 183.578125 263.132812 C 183.71875 263.035156 183.828125 262.9375 183.90625 262.839844 C 185.75 260.5625 183.074219 258.730469 183.074219 258.730469 C 183.074219 258.730469 184.058594 258.886719 185.820312 256.902344 C 187.582031 254.917969 185.292969 252.894531 185.292969 252.894531 C 188.066406 252.542969 192.605469 252.511719 192.472656 249.28125 C 192.378906 246.988281 189.664062 245.816406 189.664062 245.816406 C 191.699219 244.515625 190.976562 242.230469 188.875 241.394531 C 188.089844 241.082031 185.019531 240.851562 181.457031 240.722656 C 178.085938 230.910156 171.617188 240.539062 169.136719 240.691406 C 168.542969 240.726562 168.117188 240.769531 167.894531 240.824219 C 166.027344 241.292969 152.765625 247.957031 147.636719 249.332031 C 143.660156 250.398438 119.929688 252.460938 114.089844 253.105469 C 108.253906 253.757812 100.082031 252.0625 92.105469 254.078125 C 92.105469 254.078125 105.78125 214.609375 103.460938 208.371094 C 101.367188 202.746094 64.539062 196.972656 64.539062 196.972656 " fill-opacity="1" fill-rule="nonzero"/></g><path fill="rgb(81.568909%, 24.308777%, 14.509583%)" d="M 153.183594 106.945312 C 153.351562 106.949219 153.5 106.960938 153.660156 106.972656 C 153.359375 106.957031 153.183594 106.945312 153.183594 106.945312 Z M 109.992188 78.835938 C 110.007812 78.851562 113.648438 83.335938 117.113281 84.613281 C 120.589844 85.890625 124.242188 86.4375 123.695312 89.359375 C 123.695312 89.359375 141.539062 106.625 153.183594 106.945312 C 153.183594 106.945312 153.148438 111.167969 153.699219 115.96875 C 148.792969 115.09375 134.558594 111.15625 119.785156 94.039062 C 119.300781 90.660156 118.898438 88.515625 118.898438 88.515625 C 114.996094 87.824219 112.007812 84.167969 109.992188 78.835938 Z M 158.695312 61.246094 C 157.808594 61.496094 156.941406 61.796875 156.078125 62.121094 C 153.59375 57.792969 149.90625 51.832031 148.71875 49.691406 C 146.933594 46.476562 147.90625 43.558594 147.90625 43.558594 C 147.90625 43.558594 154.609375 53.78125 158.777344 61.222656 C 158.753906 61.230469 158.722656 61.234375 158.695312 61.246094 Z M 217.695312 208.796875 C 220.933594 202.324219 219.597656 198.199219 218.933594 191.019531 C 220.332031 189.914062 221.996094 188.851562 223.765625 187.863281 C 226.515625 193.09375 229.59375 205.988281 224.625 216.210938 C 222.675781 220.222656 221.683594 224.472656 221.191406 228.15625 C 217.636719 224.328125 214.71875 221.007812 213.097656 219.132812 C 214.546875 215.078125 216.152344 211.882812 217.695312 208.796875 Z M 161.671875 45.015625 C 163.339844 44.253906 165.476562 45.363281 166.449219 47.488281 C 167.414062 49.617188 166.851562 51.953125 165.183594 52.714844 C 163.515625 53.476562 161.378906 52.363281 160.410156 50.238281 C 159.441406 48.109375 160.007812 45.773438 161.671875 45.015625 Z M 134.644531 54.460938 C 136.308594 53.703125 138.449219 54.8125 139.417969 56.941406 C 140.386719 59.066406 139.824219 61.40625 138.15625 62.164062 C 136.488281 62.921875 134.351562 61.816406 133.382812 59.6875 C 132.410156 57.5625 132.976562 55.222656 134.644531 54.460938 Z M 153.183594 43.558594 C 153.183594 43.558594 154.914062 39.199219 159.632812 38.769531 C 159.890625 39.121094 160.167969 39.460938 160.488281 39.761719 C 160.699219 39.957031 160.925781 40.132812 161.160156 40.292969 C 158.421875 40.5 155.25 41.285156 153.183594 43.558594 Z M 137.882812 46.445312 C 138.304688 46.5 126.167969 49.972656 123.484375 55.757812 C 123.484375 55.757812 123.0625 44.613281 137.882812 46.445312 Z M 145.527344 261.578125 C 146.371094 261.625 146.671875 262.558594 147.0625 263.308594 C 147.0625 263.105469 146.839844 262.984375 146.652344 262.914062 C 145.511719 262.511719 144.230469 262.523438 143.097656 262.953125 C 143.574219 262.257812 144.683594 261.523438 145.527344 261.578125 Z M 93.9375 248.628906 C 92.835938 251.957031 92.105469 254.078125 92.105469 254.078125 C 88.714844 258.027344 78.410156 261.191406 72.304688 257.894531 C 72.304688 257.894531 85.941406 256.390625 93.9375 248.628906 Z M 248.511719 199.386719 C 249.972656 202.417969 251.054688 204.363281 251.519531 204.707031 C 250.78125 206.617188 245.785156 214.074219 246.554688 224.078125 C 246.554688 224.078125 243.992188 209.96875 248.511719 199.386719 Z M 316.289062 157.765625 C 315.585938 160.773438 316.691406 164.136719 319.046875 166.140625 C 317.394531 165.964844 316.085938 164.757812 315.605469 163.171875 C 314.5625 159.71875 316.097656 159.414062 316.289062 157.765625 Z M 339.070312 149.207031 C 338.699219 149.1875 338.386719 148.921875 338.136719 148.644531 C 337.675781 148.140625 337.300781 147.558594 337.03125 146.933594 C 337.957031 147.542969 338.679688 148.164062 339.070312 149.207031 Z M 317.242188 178.597656 C 318.867188 173.523438 322.1875 168.855469 325.363281 167.035156 L 325.363281 171.816406 C 325.363281 171.816406 318.785156 174.800781 317.242188 178.597656 Z M 169.472656 245.300781 C 170.03125 245.734375 170.128906 246.539062 170.066406 247.242188 C 170.007812 247.941406 169.832031 248.664062 170.015625 249.34375 C 170.195312 250.011719 170.703125 250.550781 170.925781 251.207031 C 171.382812 252.554688 170.546875 254.03125 170.761719 255.445312 C 170.867188 256.117188 171.203125 256.734375 171.398438 257.390625 C 171.59375 258.042969 171.617188 258.824219 171.167969 259.339844 C 170.585938 259.070312 170.683594 258.472656 170.550781 257.84375 C 170.363281 256.980469 169.675781 256.292969 169.464844 255.4375 C 169.128906 254.070312 170.070312 252.59375 169.617188 251.261719 C 169.421875 250.683594 168.984375 250.210938 168.832031 249.617188 C 168.523438 248.371094 169.609375 247.070312 169.246094 245.835938 C 169.175781 245.605469 169.058594 245.347656 169.175781 245.136719 C 169.289062 244.921875 169.597656 245.097656 169.472656 245.300781 Z M 184.800781 257.894531 C 183.6875 258.8125 183.074219 258.730469 183.074219 258.730469 C 183.074219 258.730469 183.191406 258.8125 183.355469 258.953125 C 180.90625 259.199219 175.847656 259.761719 175.066406 259.515625 C 174.167969 259.222656 181.886719 258.117188 184.800781 257.894531 Z M 187.914062 252.59375 C 186.996094 252.71875 186.074219 252.796875 185.292969 252.894531 C 185.292969 252.894531 185.621094 253.1875 185.933594 253.65625 C 182.757812 253.972656 173.035156 255.160156 174 254.042969 C 172.460938 253.902344 184.894531 252.398438 187.914062 252.59375 Z M 190.699219 244.675781 C 185.796875 244.757812 173.328125 246.59375 173.328125 246.59375 C 172.0625 247.914062 186.378906 246.214844 189.949219 245.957031 C 189.773438 245.863281 189.664062 245.816406 189.664062 245.816406 C 190.183594 245.488281 190.519531 245.089844 190.699219 244.675781 " fill-opacity="1" fill-rule="nonzero"/><path fill="rgb(36.079407%, 88.238525%, 90.19928%)" d="M 191.394531 232.066406 L 190.855469 228.136719 C 190.855469 228.136719 178.097656 229.648438 175.558594 230.453125 C 173.015625 231.261719 168.09375 235.5625 167.820312 236.648438 C 167.542969 237.730469 169.136719 240.691406 169.136719 240.691406 C 171.613281 240.539062 176.929688 240.554688 181.457031 240.722656 C 184.121094 238.191406 186.886719 235.335938 187.445312 234.636719 C 188.433594 233.394531 191.394531 232.066406 191.394531 232.066406 Z M 171.023438 266.253906 C 171.023438 266.253906 169.667969 275.253906 169.871094 280.355469 C 170.023438 284.238281 171.339844 301.433594 171.960938 309.425781 C 172.136719 311.703125 174.121094 313.394531 176.402344 313.21875 L 198.007812 311.535156 C 200.3125 311.351562 202.019531 309.320312 201.800781 307.023438 C 201.3125 301.980469 200.488281 293.292969 199.886719 286.125 C 198.972656 275.3125 193.167969 269.992188 190.414062 268.132812 C 187.660156 266.277344 184.074219 264.0625 183.574219 263.128906 C 181.984375 264.261719 176.519531 265.503906 171.027344 266.253906 Z M 147.640625 73.667969 C 150.726562 71.980469 159.054688 66.617188 162.722656 65.628906 C 166.394531 64.644531 173.167969 64.644531 173.167969 64.644531 C 172.183594 64.363281 164.558594 62.808594 159.054688 64.644531 C 153.546875 66.476562 145.222656 73.421875 142.679688 74.324219 C 142.679688 74.324219 144.558594 75.363281 147.640625 73.667969 Z M 167.101562 76.492188 C 167.566406 76.171875 154.578125 78.890625 147.640625 81.992188 C 147.640625 81.992188 159.480469 81.707031 167.101562 76.492188 Z M 163.429688 91.726562 C 169.21875 91.300781 177.683594 82.554688 177.261719 82.699219 C 175.992188 83.121094 167.242188 88.058594 165.265625 89.042969 C 163.289062 90.03125 163.429688 91.726562 163.429688 91.726562 Z M 120.835938 76.316406 C 113.707031 75.507812 107.707031 69.617188 107.707031 69.617188 L 107.261719 65.863281 C 110.210938 70.609375 119.234375 73.371094 119.234375 73.371094 C 119.234375 73.371094 131.480469 74.886719 137.246094 72.003906 C 143.011719 69.121094 146.773438 63.625 149.824219 61.25 C 152.878906 58.878906 156.835938 57.859375 161.1875 58.503906 C 165.53125 59.148438 176.570312 58.507812 176.613281 58.503906 C 178.882812 66.148438 180.859375 76.652344 179.390625 87.578125 C 171.167969 105.648438 139.152344 97.402344 139.152344 97.402344 L 119.25 90.535156 L 118.898438 88.515625 L 134.609375 93.953125 C 128.179688 88.269531 123.238281 80.5 120.835938 76.316406 Z M 340.40625 213.199219 C 340.335938 213.214844 340.273438 213.226562 340.210938 213.242188 C 340.273438 213.226562 340.335938 213.214844 340.40625 213.199219 Z M 353.527344 141.226562 C 352.527344 140.277344 351.441406 139.671875 350.167969 139.140625 C 348.085938 138.265625 345.894531 137.523438 343.632812 137.546875 C 341.375 137.570312 340.164062 138.972656 338.890625 140.839844 C 339.445312 140.140625 340.429688 139.996094 341.3125 139.949219 C 344.027344 139.808594 346.761719 140.136719 349.363281 140.917969 C 350.730469 141.324219 352.242188 141.847656 353.527344 141.226562 Z M 352.402344 205.359375 C 353.507812 200.183594 353.839844 194.847656 353.390625 189.578125 C 353.144531 190.585938 352.875 191.804688 352.628906 192.808594 C 351.761719 196.355469 350.679688 202.136719 352.402344 205.359375 Z M 360.371094 184.972656 C 358.339844 179.027344 356.292969 173.007812 355.738281 166.742188 C 355.246094 161.238281 355.789062 155.195312 352.546875 150.714844 C 353.917969 156.515625 352.839844 162.957031 353.546875 168.875 C 353.96875 172.40625 354.964844 175.839844 355.957031 179.253906 C 356.640625 181.609375 357.953125 184.574219 360.371094 184.972656 Z M 325.363281 167.035156 C 325.363281 167.035156 331.941406 161.652344 334.035156 157.171875 C 336.128906 152.6875 343.300781 145.363281 346.894531 143.125 C 346.894531 143.125 344.203125 138.941406 339.417969 141.632812 C 334.632812 144.320312 329.847656 148.207031 328.054688 148.503906 L 335.53125 133.265625 C 335.53125 133.265625 340.613281 123.402344 346.894531 124.300781 C 353.171875 125.195312 359.152344 140.4375 362.441406 148.207031 C 365.730469 155.976562 374.703125 174.203125 372.609375 193.929688 C 372.609375 193.929688 365.433594 195.125 363.339844 200.207031 C 361.246094 205.285156 359.152344 209.46875 351.378906 210.964844 C 347.328125 211.742188 344.34375 212.355469 342.402344 212.769531 C 342.535156 203.746094 342.992188 170.390625 342.367188 166.140625 C 341.640625 161.21875 341.457031 154.5625 341.457031 154.5625 C 338.367188 165.847656 339.277344 210.292969 339.714844 213.355469 C 339.714844 213.355469 339.851562 213.320312 340.117188 213.261719 C 339.851562 213.320312 339.714844 213.355469 339.714844 213.355469 L 340.3125 223.214844 C 340.3125 223.214844 332.242188 232.179688 318.785156 223.214844 L 325.363281 171.816406 L 325.363281 167.035156 " fill-opacity="1" fill-rule="nonzero"/></svg>