<?xml version="1.0" standalone="no"?>
<!DOCTYPE svg PUBLIC "-//W3C//DTD SVG 20010904//EN"
 "http://www.w3.org/TR/2001/REC-SVG-20010904/DTD/svg10.dtd">
<svg version="1.0" xmlns="http://www.w3.org/2000/svg"
 width="512.000000pt" height="512.000000pt" viewBox="0 0 512.000000 512.000000"
 preserveAspectRatio="xMidYMid meet">

<g transform="translate(0.000000,512.000000) scale(0.100000,-0.100000)"
fill="#000000" stroke="none">
<path d="M1187 4514 c-4 -4 -7 -473 -7 -1043 0 -802 -3 -1041 -13 -1060 -6
-14 -43 -41 -82 -62 -90 -49 -125 -87 -125 -137 0 -68 41 -92 239 -142 154
-39 201 -57 201 -79 0 -23 -34 -53 -90 -81 -85 -42 -108 -65 -120 -122 -8 -37
-10 -226 -8 -618 l3 -565 30 0 30 0 3 98 3 97 1019 0 c966 0 1020 1 1029 18 6
11 6 24 0 35 -9 15 -31 17 -204 17 l-195 0 0 1201 0 1201 63 -35 c34 -20 184
-106 332 -191 154 -89 279 -155 290 -154 14 2 20 11 20 28 0 28 135 -52 -1393
830 l-961 555 -3 105 c-3 104 -3 105 -28 108 -14 2 -29 0 -33 -4z m863 -749
l780 -450 0 -1222 0 -1223 -790 0 -790 0 0 448 c0 339 3 453 13 472 7 14 43
41 82 63 91 49 125 85 125 135 0 67 -47 96 -231 142 -140 35 -177 47 -201 68
-27 22 -10 41 84 93 136 76 123 -36 126 1022 1 572 6 907 12 905 5 -2 361
-205 790 -453z"/>
<path d="M1377 2983 c-14 -13 -7 -43 12 -53 11 -5 65 -10 120 -10 l101 0 -2
-617 -3 -618 -109 -5 c-87 -4 -111 -8 -119 -22 -8 -12 -7 -21 2 -32 12 -14 61
-16 413 -16 256 0 406 4 419 10 18 10 19 28 19 675 0 365 -3 670 -6 679 -5 14
-52 16 -423 16 -230 0 -421 -3 -424 -7z m783 -683 l0 -620 -245 0 -245 0 0
620 0 620 245 0 245 0 0 -620z"/>
<path d="M3305 2747 c-15 -12 -17 -24 -13 -89 7 -113 56 -187 143 -215 l30
-10 3 -108 3 -108 -199 -201 c-110 -110 -208 -217 -218 -236 -16 -30 -19 -63
-22 -230 -6 -299 -23 -262 241 -527 122 -123 227 -223 235 -223 24 0 212 191
212 214 0 14 -58 79 -166 186 -91 91 -172 177 -180 192 -10 19 -14 60 -14 134
l0 107 205 207 c128 129 210 220 220 243 11 27 15 74 15 191 l0 154 36 12 c49
16 103 66 125 115 22 47 26 174 7 193 -18 18 -637 17 -663 -1z m605 -103 c0
-77 -60 -144 -128 -144 -47 0 -52 -20 -52 -201 0 -106 -4 -179 -11 -192 -6
-12 -100 -112 -209 -222 -221 -223 -220 -221 -220 -360 0 -153 -7 -140 184
-333 l170 -172 -64 -65 c-36 -36 -69 -65 -75 -65 -21 0 -374 365 -390 402 -12
29 -15 78 -15 227 0 109 5 202 11 218 5 15 100 118 209 228 109 110 203 213
209 228 15 40 14 280 -1 295 -7 7 -24 12 -39 12 -63 0 -129 78 -129 153 l0 37
275 0 275 0 0 -46z"/>
<path d="M3719 854 c-9 -11 -10 -20 -2 -32 9 -15 35 -17 224 -17 l214 0 3 24
c2 13 -2 28 -10 32 -7 5 -104 9 -214 9 -172 0 -203 -2 -215 -16z"/>
</g>
</svg>
