<?xml version="1.0" standalone="no"?>
<!DOCTYPE svg PUBLIC "-//W3C//DTD SVG 20010904//EN"
 "http://www.w3.org/TR/2001/REC-SVG-20010904/DTD/svg10.dtd">
<svg version="1.0" xmlns="http://www.w3.org/2000/svg"
 width="512.000000pt" height="512.000000pt" viewBox="0 0 512.000000 512.000000"
 preserveAspectRatio="xMidYMid meet">

<g transform="translate(0.000000,512.000000) scale(0.100000,-0.100000)"
fill="#000000" stroke="none">
<path d="M1472 4907 c-22 -23 -22 -28 -22 -355 l0 -332 -93 0 c-168 0 -296
-50 -408 -161 -72 -71 -128 -171 -148 -264 -5 -27 -36 -540 -67 -1140 -31
-599 -57 -1091 -59 -1093 -2 -2 -22 7 -46 19 -141 71 -328 5 -407 -145 l-27
-51 0 -485 0 -485 24 -45 c32 -62 86 -117 146 -148 94 -49 270 -29 331 39 16
18 18 17 62 -13 88 -60 41 -58 1172 -58 1133 0 1093 -2 1176 58 l39 29 39 -29
c158 -114 398 -44 465 137 20 53 21 75 21 515 0 446 -1 461 -22 517 -28 75
-97 144 -175 173 -74 28 -177 24 -241 -9 -24 -12 -45 -21 -46 -19 -1 2 -28
498 -58 1103 -62 1216 -57 1163 -133 1290 -101 168 -249 252 -465 264 l-115 6
-3 156 -2 157 77 21 c217 58 373 76 598 68 402 -13 686 -113 898 -316 75 -72
197 -237 197 -267 0 -9 -11 -14 -33 -14 -69 0 -67 12 -67 -468 0 -419 1 -433
20 -452 11 -11 25 -20 30 -20 7 0 10 -371 10 -1094 0 -1086 0 -1095 -20 -1101
-36 -11 -43 -45 -51 -235 -4 -102 -10 -238 -14 -303 -5 -115 -5 -118 19 -142
l25 -25 225 0 c219 0 226 1 251 23 l27 22 -14 314 -13 313 -28 22 -27 22 0
1089 0 1089 28 22 27 22 3 284 3 284 156 21 c205 27 193 12 193 235 0 166 0
169 -25 193 -13 14 -31 25 -40 25 -8 0 -99 -31 -201 -70 -163 -62 -193 -70
-253 -70 l-67 0 -30 62 c-151 321 -448 542 -847 632 -199 46 -511 59 -717 32
-89 -12 -144 -23 -317 -63 -23 -5 -23 -4 -23 96 0 155 46 141 -478 141 l-439
0 -21 -23z m798 -195 l0 -78 -62 -30 c-162 -76 -311 -203 -378 -322 l-35 -61
-102 -1 -103 0 0 285 0 285 340 0 340 0 0 -78z m0 -362 l0 -130 -155 0 c-85 0
-155 3 -155 6 0 15 92 113 143 152 43 33 152 101 165 102 1 0 2 -58 2 -130z
m371 -286 c75 -22 129 -56 184 -115 62 -66 96 -144 107 -244 5 -44 34 -568 64
-1165 51 -1010 55 -1118 55 -1570 -1 -268 3 -503 9 -525 8 -35 6 -43 -13 -64
-49 -53 -8 -51 -1117 -51 -1009 0 -1032 0 -1070 20 -21 11 -42 25 -46 31 -3 6
-6 239 -5 517 2 470 6 593 61 1672 47 907 63 1177 76 1220 30 103 105 194 197
242 92 47 85 47 783 47 579 1 667 -1 715 -15z m2149 -132 l0 -69 -94 -11 c-52
-7 -100 -12 -105 -12 -6 0 -11 17 -11 39 l0 38 103 41 c56 22 103 41 105 41 1
1 2 -30 2 -67z m-350 -372 l0 -330 -110 0 -110 0 0 330 0 330 110 0 110 0 0
-330z m-60 -1565 l0 -1095 -50 0 -50 0 0 1095 0 1095 50 0 50 0 0 -1095z
m-3796 -548 c25 -14 48 -39 63 -66 l23 -44 0 -434 c0 -479 1 -474 -63 -530
-64 -56 -150 -56 -214 0 -64 56 -63 51 -63 530 l0 434 23 44 c29 55 85 89 147
89 28 0 60 -9 84 -23z m2879 -10 c68 -51 67 -45 67 -539 0 -412 -1 -446 -19
-478 -48 -91 -175 -117 -252 -53 -68 58 -69 61 -69 529 0 288 4 432 11 455 14
42 54 87 94 105 46 22 127 13 168 -19z m981 -834 c4 -87 9 -184 12 -215 l5
-58 -131 0 -130 0 0 73 c0 39 3 136 7 215 l6 142 113 0 112 0 6 -157z"/>
<path d="M1406 3564 c-38 -37 -27 -96 20 -114 15 -6 229 -10 513 -10 479 0
489 0 515 21 32 25 35 70 6 99 -19 19 -33 20 -529 20 -450 0 -511 -2 -525 -16z"/>
<path d="M1405 3245 c-14 -13 -25 -33 -25 -45 0 -11 11 -32 25 -45 l24 -25
504 0 504 0 21 23 c28 30 28 68 -1 95 -23 22 -24 22 -526 22 l-502 0 -24 -25z"/>
<path d="M1423 2950 c-44 -18 -54 -78 -17 -114 14 -14 75 -16 525 -16 496 0
510 1 529 20 29 29 26 74 -6 99 -26 21 -36 21 -518 20 -270 0 -501 -4 -513 -9z"/>
<path d="M1205 1795 l-25 -24 0 -409 c0 -399 1 -410 21 -436 l20 -26 710 0
c696 0 709 0 729 20 19 19 20 33 20 439 l0 420 -26 20 c-26 21 -34 21 -726 21
l-699 0 -24 -25z m1335 -435 l0 -320 -610 0 -610 0 0 320 0 320 610 0 610 0 0
-320z"/>
</g>
</svg>
