<?xml version="1.0" standalone="no"?>
<!DOCTYPE svg PUBLIC "-//W3C//DTD SVG 20010904//EN"
 "http://www.w3.org/TR/2001/REC-SVG-20010904/DTD/svg10.dtd">
<svg version="1.0" xmlns="http://www.w3.org/2000/svg"
 width="512.000000pt" height="512.000000pt" viewBox="0 0 512.000000 512.000000"
 preserveAspectRatio="xMidYMid meet">

<g transform="translate(0.000000,512.000000) scale(0.100000,-0.100000)"
fill="#000000" stroke="none">
<path d="M1347 3829 c-47 -11 -126 -51 -164 -83 -16 -13 -41 -46 -55 -73 -24
-43 -41 -146 -177 -1048 -83 -551 -151 -1017 -151 -1037 0 -104 81 -222 188
-275 l57 -28 981 -3 982 -2 12 -47 c19 -78 78 -193 136 -270 96 -125 238 -222
399 -273 107 -34 283 -39 397 -11 233 55 419 203 524 416 62 127 79 197 78
335 0 96 -5 130 -27 203 -37 119 -122 306 -222 485 l-82 148 -102 680 c-91
604 -106 684 -129 727 -32 60 -69 91 -152 131 l-65 31 -1195 2 c-675 0 -1211
-3 -1233 -8z m703 -111 c0 -68 -20 -489 -26 -535 l-5 -43 -455 0 c-250 0 -454
1 -454 3 0 25 71 459 78 477 20 50 106 113 177 131 17 4 177 7 358 8 l327 1 0
-42z m949 -230 c6 -150 14 -290 17 -310 l6 -38 -462 0 -462 0 6 38 c3 20 11
160 17 310 l12 272 427 0 427 0 12 -272z m804 249 c48 -22 116 -84 129 -117 7
-18 78 -452 78 -477 0 -2 -204 -3 -454 -3 l-455 0 -5 43 c-6 46 -26 467 -26
535 l0 43 348 -3 c305 -3 352 -6 385 -21z m-1787 -754 c-3 -43 -10 -181 -16
-308 -6 -126 -13 -258 -16 -292 l-6 -63 -494 0 c-426 0 -494 2 -494 15 0 17
98 670 105 703 l5 22 461 0 461 0 -6 -77z m1008 -5 c3 -46 11 -182 16 -303 6
-121 13 -250 16 -287 l5 -68 -501 0 -501 0 5 68 c3 37 10 166 16 287 5 121 13
257 16 303 l6 82 458 0 458 0 6 -82z m1001 60 c11 -48 85 -562 83 -570 -2 -5
-65 82 -140 194 -144 215 -170 248 -193 248 -7 0 -29 -19 -48 -42 -38 -46
-230 -331 -315 -465 l-52 -83 -109 0 -109 0 -6 63 c-3 34 -10 166 -16 292 -6
127 -13 265 -16 308 l-6 77 461 0 461 0 5 -22z m-117 -430 c260 -387 462 -754
533 -968 60 -181 49 -334 -37 -510 -40 -81 -60 -109 -138 -185 -69 -69 -109
-99 -167 -128 -214 -105 -443 -103 -652 5 -108 56 -236 181 -289 283 -60 116
-82 204 -82 325 0 94 4 116 36 210 85 250 289 616 581 1043 44 64 82 117 83
117 2 0 61 -87 132 -192z m-1932 -425 c-3 -32 -13 -215 -21 -408 -9 -192 -18
-365 -21 -382 l-5 -33 -418 0 c-479 0 -483 1 -561 79 -44 45 -70 100 -70 152
0 13 21 165 47 337 l47 312 504 0 504 0 -6 -57z m1088 5 c3 -29 8 -130 12
-224 7 -168 6 -172 -20 -236 -35 -89 -55 -177 -62 -280 l-7 -88 -488 0 -488 0
4 48 c3 26 12 196 20 377 8 182 18 358 21 393 l6 62 498 0 498 0 6 -52z m244
44 c-24 -53 -145 -259 -149 -254 -4 4 -9 64 -12 135 l-5 127 85 0 c47 0 83 -3
81 -8z"/>
</g>
</svg>
