<?xml version="1.0" standalone="no"?>
<!DOCTYPE svg PUBLIC "-//W3C//DTD SVG 20010904//EN"
 "http://www.w3.org/TR/2001/REC-SVG-20010904/DTD/svg10.dtd">
<svg version="1.0" xmlns="http://www.w3.org/2000/svg"
 width="512.000000pt" height="512.000000pt" viewBox="0 0 512.000000 512.000000"
 preserveAspectRatio="xMidYMid meet">

<g transform="translate(0.000000,512.000000) scale(0.100000,-0.100000)"
fill="#000000" stroke="none">
<path d="M255 4935 l-25 -24 0 -2200 0 -2200 24 -28 24 -28 1512 0 1512 0 24
28 c29 34 31 66 3 101 l-20 26 -1460 0 -1459 0 0 2095 0 2095 2075 0 2075 0 0
-809 0 -810 26 -20 c35 -28 67 -26 101 3 l28 24 0 862 0 862 -28 24 -28 24
-2180 0 -2180 0 -24 -25z"/>
<path d="M723 4520 c-12 -5 -26 -18 -32 -29 -8 -14 -11 -556 -11 -1789 l0
-1769 23 -21 23 -22 771 0 c744 0 772 1 794 19 l24 19 3 1772 2 1771 -29 30
-29 29 -759 -1 c-417 0 -768 -4 -780 -9z m1437 -1810 l0 -1660 -660 0 -660 0
0 1660 0 1660 660 0 660 0 0 -1660z"/>
<path d="M1382 3941 c-375 -363 -386 -375 -378 -414 8 -40 39 -67 78 -67 33 0
45 10 436 391 207 202 232 230 232 258 0 42 -38 81 -80 81 -28 0 -64 -31 -288
-249z"/>
<path d="M1763 3828 c-96 -95 -113 -117 -113 -143 0 -42 36 -75 81 -75 30 0
49 14 147 108 99 94 112 111 112 140 0 44 -38 82 -81 82 -27 0 -49 -16 -146
-112z"/>
<path d="M1377 3453 c-135 -129 -147 -149 -124 -198 18 -38 55 -54 93 -39 13
5 75 60 139 121 126 123 136 144 94 197 -15 19 -30 26 -55 26 -31 0 -49 -13
-147 -107z"/>
<path d="M1458 2365 c-29 -16 -31 -21 -47 -117 -24 -137 -91 -213 -219 -247
-117 -32 -109 -143 13 -170 112 -25 181 -112 209 -261 16 -83 38 -110 88 -110
44 0 74 36 82 99 18 138 89 236 194 267 74 23 102 48 102 91 0 44 -25 67 -93
87 -117 34 -190 126 -205 259 -9 73 -27 101 -72 111 -14 3 -37 -1 -52 -9z m95
-500 c-26 -27 -48 -52 -49 -54 -2 -2 -25 21 -52 50 l-49 53 46 53 46 52 52
-52 52 -51 -46 -51z"/>
<path d="M2635 4505 l-25 -24 0 -1774 0 -1774 23 -21 c23 -22 28 -22 344 -22
357 0 356 0 369 67 5 27 1 37 -24 63 l-30 30 -261 0 -261 0 0 1660 0 1660 660
0 660 0 0 -588 c0 -571 1 -589 20 -609 10 -12 29 -24 40 -28 30 -10 75 12 89
41 16 35 16 1263 0 1297 -6 14 -22 30 -36 36 -17 8 -248 11 -784 11 l-760 0
-24 -25z"/>
<path d="M3391 3913 c-16 -13 -24 -36 -32 -87 -21 -154 -85 -229 -230 -272
-51 -15 -69 -36 -69 -79 0 -47 17 -63 91 -85 47 -14 83 -33 109 -57 45 -40 86
-120 96 -184 14 -101 33 -129 89 -129 55 0 78 30 90 121 9 67 56 160 101 198
22 17 64 39 94 47 132 37 132 138 0 179 -119 37 -198 135 -200 246 0 49 -18
97 -40 109 -29 15 -76 12 -99 -7z m121 -471 c-18 -18 -40 -44 -48 -58 l-16
-24 -21 28 c-11 15 -33 41 -49 57 l-28 31 46 50 47 51 51 -51 51 -51 -33 -33z"/>
<path d="M3718 2883 c-15 -2 -37 -16 -48 -30 -17 -22 -20 -40 -20 -144 0 -169
9 -182 133 -194 78 -8 78 -5 18 -93 -53 -77 -85 -106 -153 -136 -82 -36 -103
-92 -53 -141 32 -33 68 -32 145 6 79 40 153 114 215 215 27 44 50 80 51 82 1
2 12 -1 23 -8 20 -10 20 -13 6 -40 -19 -36 -22 -362 -4 -407 6 -15 11 -68 12
-118 0 -75 -5 -105 -32 -184 -37 -111 -117 -272 -204 -414 -76 -123 -91 -158
-114 -273 -13 -68 -17 -138 -18 -294 0 -179 3 -216 22 -292 26 -103 62 -178
98 -206 65 -51 82 -53 500 -50 l390 3 47 28 c62 36 91 88 116 207 88 412 27
994 -160 1541 -41 121 -42 128 -47 287 l-6 164 -28 24 c-15 13 -37 24 -48 24
-10 0 -19 4 -19 8 0 28 38 128 72 190 35 64 40 80 35 119 -7 63 -57 113 -124
124 -48 8 -754 10 -805 2z m749 -165 c-42 -93 -77 -191 -82 -230 l-7 -48 -57
0 c-56 0 -57 1 -122 64 -79 77 -179 127 -303 153 -83 17 -86 18 -86 45 l0 28
331 0 c261 0 330 -3 326 -12z m13 -523 l0 -85 -150 0 -150 0 0 85 0 85 150 0
150 0 0 -85z m74 -357 c68 -219 122 -464 153 -688 42 -306 9 -785 -57 -820
-12 -6 -153 -10 -373 -10 -323 0 -357 2 -376 17 -70 60 -93 445 -40 691 6 29
36 91 75 153 83 132 175 314 214 419 38 104 63 240 54 303 l-6 47 161 0 160 0
35 -112z"/>
</g>
</svg>
